<svg>
  <symbol xmlns="http://www.w3.org/2000/svg" viewBox="0 0 20 18" id="basket">
    <path fill-rule="evenodd" clip-rule="evenodd" d="M0 1a1 1 0 011-1h3.273a1 1 0 01.977.79l.65 3.02H19a1 1 0 01.98 1.2l-1.311 6.4a2.51 2.51 0 01-.957 1.482c-.48.36-1.069.545-1.665.537H8.11a2.715 2.715 0 01-1.665-.537 2.51 2.51 0 01-.957-1.48L4.122 5.06a.996.996 0 01-.016-.079L3.465 2H1a1 1 0 01-1-1zm6.33 4.81l1.113 5.183a.511.511 0 00.201.299c.116.087.272.14.44.137h7.988a.716.716 0 00.44-.137.512.512 0 00.2-.296l1.063-5.186H6.329zm1.317 10.62a.267.267 0 00.08-.193.267.267 0 00-.08-.193.155.155 0 00-.103-.045.155.155 0 00-.102.045.267.267 0 00-.08.193c0 .09.042.158.08.193a.155.155 0 00.102.045c.028 0 .067-.01.103-.045zm-1.92-.193c0-1.039.882-1.762 1.817-1.762.936 0 1.819.723 1.819 1.762 0 1.04-.883 1.762-1.819 1.762-.935 0-1.818-.723-1.818-1.762zm10.92.193a.267.267 0 00.08-.193.267.267 0 00-.08-.193.155.155 0 00-.102-.045.155.155 0 00-.104.045.267.267 0 00-.078.193c0 .09.04.158.078.193a.155.155 0 00.104.045c.027 0 .066-.01.102-.045zm-1.92-.193c0-1.039.882-1.762 1.818-1.762.935 0 1.818.723 1.818 1.762 0 1.04-.883 1.762-1.819 1.762-.935 0-1.818-.723-1.818-1.762z"></path>
  </symbol>
  <symbol fill="none" xmlns="http://www.w3.org/2000/svg" viewBox="0 0 18 18" id="search">
    <path fill-rule="evenodd" clip-rule="evenodd" d="M8.111 2a6.111 6.111 0 104.234 10.518 1.01 1.01 0 01.173-.173A6.111 6.111 0 008.11 2zm6.4 11.096a8.111 8.111 0 10-1.414 1.414l3.196 3.197a1 1 0 001.414-1.414l-3.197-3.197z" fill="#151C22"></path>
  </symbol>
  <symbol xmlns="http://www.w3.org/2000/svg" viewBox="0 0 12 29" id="arrow-d">
  <path d="M6 0v27m0 0l5-6m-5 6l-5-6" stroke="#151C22" stroke-width="2"></path>
</symbol>
</svg>